<svg width="41" height="33" viewBox="0 0 41 33" fill="none" xmlns="http://www.w3.org/2000/svg">
<path d="M24.4331 12.9421C22.7995 12.9421 21.2635 13.6469 20.038 14.9219C18.8159 13.6339 17.2978 12.9421 15.6347 12.9421C12.731 12.9421 10.1658 15.0826 9.39697 18.1471C8.99406 19.7524 8.9098 22.3076 10.7951 25.3629C12.4791 28.0916 15.3714 30.6052 19.3916 32.8339C19.5916 32.9447 19.812 33 20.0329 33C20.2533 33 20.4741 32.9447 20.6739 32.834C24.6954 30.6054 27.5886 28.0918 29.2733 25.3631C31.1595 22.3078 31.0754 19.7528 30.6727 18.1475C29.9034 15.0826 27.3378 12.9421 24.4331 12.9421ZM20.0327 30.0813C11.2448 24.9785 11.6475 20.19 11.9915 18.8194C12.4503 16.9907 13.9825 15.6633 15.6345 15.6633C16.8913 15.6633 18.0467 16.4404 18.8873 17.8516C19.1297 18.2587 19.5641 18.5074 20.0325 18.5076C20.5007 18.5076 20.9353 18.2591 21.1777 17.8522C22.0194 16.4406 23.1753 15.6633 24.4329 15.6633C26.086 15.6633 27.6188 16.9907 28.0776 18.8194C28.4216 20.1898 28.8236 24.9781 20.0327 30.0813Z" fill="black"/>
<path d="M14.2582 10.6094C17.1366 10.6094 19.4784 8.22982 19.4784 5.30495C19.4784 2.37973 17.1366 0 14.2582 0C11.3796 0 9.0376 2.37991 9.0376 5.30495C9.0376 8.22982 11.3796 10.6094 14.2582 10.6094ZM14.2582 2.72114C15.6602 2.72114 16.8006 3.88035 16.8006 5.30495C16.8006 6.72938 15.6601 7.88822 14.2582 7.88822C12.8561 7.88822 11.7154 6.72938 11.7154 5.30495C11.7154 3.88017 12.8559 2.72114 14.2582 2.72114Z" fill="black"/>
<path d="M25.8113 10.6094C28.6897 10.6094 31.0315 8.22982 31.0315 5.30495C31.0315 2.37973 28.6897 0 25.8113 0C22.9329 0 20.5911 2.37991 20.5911 5.30495C20.5909 8.22982 22.9327 10.6094 25.8113 10.6094ZM25.8113 2.72114C27.2132 2.72114 28.3537 3.88035 28.3537 5.30495C28.3537 6.72938 27.2132 7.88822 25.8113 7.88822C24.4092 7.88822 23.2688 6.72938 23.2688 5.30495C23.2686 3.88017 24.4092 2.72114 25.8113 2.72114Z" fill="black"/>
<path d="M4.86593 8.0437C2.20174 8.0437 0.0341797 10.2466 0.0341797 12.9543C0.0341797 15.6616 2.20174 17.8641 4.86593 17.8641C7.53048 17.8641 9.69803 15.6614 9.69803 12.9543C9.69821 10.2466 7.53048 8.0437 4.86593 8.0437ZM4.86593 15.143C3.67825 15.143 2.71194 14.1612 2.71194 12.9543C2.71194 11.7472 3.67825 10.765 4.86593 10.765C6.05378 10.765 7.02027 11.7472 7.02027 12.9543C7.02045 14.1612 6.05396 15.143 4.86593 15.143Z" fill="black"/>
<path d="M35.2021 8.0437C32.5377 8.0437 30.3704 10.2466 30.3704 12.9541C30.3704 15.6614 32.5379 17.8639 35.2021 17.8639C37.8667 17.8639 40.0342 15.6613 40.0342 12.9541C40.0342 10.2466 37.8667 8.0437 35.2021 8.0437ZM35.2021 15.143C34.0144 15.143 33.0481 14.161 33.0481 12.9543C33.0481 11.7472 34.0144 10.765 35.2021 10.765C36.39 10.765 37.3565 11.7472 37.3565 12.9543C37.3565 14.1612 36.39 15.143 35.2021 15.143Z" fill="black"/>
</svg>
