<svg width="51" height="51" viewBox="0 0 51 51" fill="none" xmlns="http://www.w3.org/2000/svg">
<path fill-rule="evenodd" clip-rule="evenodd" d="M0 7.86429C0 0.220869 22.794 0 25.393 0C27.9923 0 50.7869 0.220869 50.7872 7.86429V42.8478C50.7872 50.4903 27.9923 50.7108 25.3933 50.7108C22.794 50.7108 0 50.4903 0 42.8478V7.86429ZM45.8046 7.86399C44.0554 6.57801 37.073 4.56342 25.393 4.56342C13.713 4.56342 6.73093 6.57801 4.98203 7.86399C6.73093 9.14935 13.7133 11.1633 25.393 11.1633C37.0727 11.1633 44.0554 9.14965 45.8046 7.86399ZM4.7086 42.6086C5.84785 43.8648 12.958 46.1474 25.393 46.1474C37.8283 46.1474 44.9388 43.8645 46.078 42.608V12.8165C39.2573 15.6145 27.238 15.7268 25.393 15.7268C23.548 15.7268 11.529 15.6145 4.7086 12.8168V42.6086ZM18.3436 34.1134C18.3436 30.3464 21.5058 27.2816 25.3929 27.2816C29.2802 27.2816 32.4427 30.3464 32.4427 34.1134C32.4427 37.8803 29.2802 40.9451 25.3929 40.9451C21.5058 40.9451 18.3436 37.8803 18.3436 34.1134ZM29.5819 19.3292C27.9435 19.3292 26.6106 20.6213 26.6106 22.2093C26.6106 23.7971 27.9435 25.0892 29.5819 25.0892C31.2209 25.0892 32.5542 23.7971 32.5542 22.2093C32.5542 20.6213 31.2209 19.3292 29.5819 19.3292ZM24.1754 22.2093C24.1754 23.7971 22.8425 25.0892 21.2041 25.0892C19.5651 25.0892 18.2318 23.7971 18.2318 22.2093C18.2318 20.6213 19.5651 19.3292 21.2041 19.3292C22.8425 19.3292 24.1754 20.6213 24.1754 22.2093ZM35.6166 25.2689C34.133 25.2689 32.9263 26.4386 32.9263 27.8761C32.9263 29.3136 34.1333 30.483 35.6166 30.483C37.1002 30.483 38.3067 29.3136 38.3067 27.8761C38.3067 26.4383 37.0999 25.2689 35.6166 25.2689ZM12.4795 27.8761C12.4795 26.4386 13.6862 25.2689 15.1695 25.2689C16.6528 25.2689 17.8599 26.4383 17.8599 27.8761C17.8599 29.3136 16.6532 30.483 15.1695 30.483C13.6862 30.483 12.4795 29.3136 12.4795 27.8761Z" fill="white"/>
</svg>
