<svg width="128" height="119" viewBox="0 0 128 119" fill="none" xmlns="http://www.w3.org/2000/svg">
<path d="M36.0048 61.2372L36.7534 23.7313L27.0972 58.617H20.1357L11.0784 24.7045C11.1283 30.7933 11.2406 36.932 11.4152 43.1206C11.5899 49.3092 11.7271 55.348 11.827 61.2372H0C0.0998054 56.0966 0.174666 50.9936 0.224568 45.9279C0.274471 40.8622 0.299419 35.7591 0.299419 30.6186C0.299419 25.4781 0.274471 20.375 0.224568 15.3093C0.174666 10.2436 0.0998054 5.14053 0 0H16.0188L23.9533 35.1103L32.8609 0H47.9815C47.8318 10.1812 47.7569 20.3874 47.7569 30.6186C47.7569 40.8497 47.8318 51.0559 47.9815 61.2372H36.0048ZM52.0236 16.4697H61.4552L61.9792 22.1592C62.578 21.2109 63.3016 20.3375 64.15 19.539C64.9983 18.7405 65.8841 18.0542 66.8073 17.4803C67.7305 16.9063 68.6537 16.4572 69.5769 16.1328C70.5001 15.8084 71.3609 15.6462 72.1593 15.6462C72.2591 16.9438 72.3465 18.4285 72.4213 20.1005C72.4962 21.7724 72.5336 23.4817 72.5336 25.2285C72.5336 27.2248 72.4962 29.1962 72.4213 31.1426C72.3465 33.089 72.2591 34.8857 72.1593 36.5327C71.7102 36.3331 71.0864 36.1833 70.288 36.0835C69.4895 35.9837 68.8159 35.9338 68.2669 35.9338C66.4205 35.9338 65.0607 36.3705 64.1874 37.2439C63.3141 38.1173 62.8774 39.2028 62.8774 40.5004V61.2372H51.8739C51.9238 53.1521 51.9612 45.4787 51.9862 38.2171C52.0111 30.9555 52.0236 23.7063 52.0236 16.4697ZM79.2705 45.9653C80.518 45.9653 81.6284 46.2148 82.6015 46.7139C83.5746 47.213 84.398 47.8493 85.0717 48.6229C85.7454 49.3965 86.2569 50.2449 86.6062 51.1682C86.9555 52.0915 87.1301 52.9774 87.1301 53.8258C87.1301 54.9238 86.9181 55.9719 86.4939 56.97C86.0697 57.9682 85.4958 58.8416 84.7722 59.5902C84.0487 60.3388 83.2003 60.9377 82.2272 61.3869C81.2541 61.8361 80.2436 62.0607 79.1956 62.0607C77.8482 62.0607 76.6755 61.8485 75.6775 61.4243C74.6794 61.0001 73.856 60.4262 73.2073 59.7025C72.5586 58.9788 72.072 58.1678 71.7476 57.2695C71.4233 56.3711 71.2611 55.4478 71.2611 54.4996C71.2611 53.5014 71.4357 52.4908 71.7851 51.4677C72.1344 50.4446 72.6459 49.5213 73.3196 48.6978C73.9933 47.8743 74.8291 47.213 75.8272 46.7139C76.8252 46.2148 77.973 45.9653 79.2705 45.9653Z" fill="#F5D7DB"/>
<path d="M0.0488281 118.028V107.796H2.79348V79.7232H0.0488281V69.4921H17.1405V73.7342C18.1801 72.4034 19.5214 71.218 21.1642 70.1783C22.8066 69.1385 24.6883 68.6187 26.8092 68.6187C31.0509 68.6187 34.2427 70.1991 36.3845 73.3599C38.526 76.5208 39.5967 81.0125 39.5967 86.8351C39.5967 92.6577 38.526 97.1494 36.3845 100.31C34.2427 103.471 31.0509 105.052 26.8092 105.052C24.6883 105.052 22.8066 104.532 21.1642 103.492C19.5214 102.452 18.1801 101.267 17.1405 99.936V107.796H21.4446V118.028H0.0488281ZM20.7585 93.947C21.9644 93.947 22.869 93.6247 23.4722 92.9803C24.075 92.3355 24.3764 91.3268 24.3764 89.9543V83.7158C24.3764 82.3434 24.075 81.3349 23.4722 80.6904C22.869 80.0456 21.9644 79.7232 20.7585 79.7232C19.5525 79.7232 18.6481 80.0456 18.0452 80.6904C17.4421 81.3349 17.1405 82.3434 17.1405 83.7158V89.9543C17.1405 91.3268 17.4421 92.3355 18.0452 92.9803C18.6481 93.6247 19.5525 93.947 20.7585 93.947ZM59.9321 105.052C54.0269 105.052 49.4109 103.502 46.0841 100.404C42.7572 97.3055 41.0938 92.7825 41.0938 86.8351C41.0938 80.8877 42.7572 76.3649 46.0841 73.2666C49.4109 70.168 54.0269 68.6187 59.9321 68.6187C65.7956 68.6187 70.0271 70.1472 72.6263 73.2042C75.2253 76.2609 76.5247 80.0559 76.5247 84.5892V89.081H56.3141V89.4553C56.3141 90.9941 56.7716 92.1275 57.6865 92.8555C58.6013 93.5832 60.1192 93.947 62.2401 93.947C64.7768 93.947 67.1888 93.7598 69.476 93.3855C71.7632 93.0112 73.7593 92.5329 75.4643 91.9507V101.932C74.0088 102.722 71.8776 103.44 69.0708 104.085C66.2636 104.729 63.2173 105.052 59.9321 105.052ZM56.3141 82.2186H63.55V81.47C63.55 80.0559 63.2486 79.037 62.6458 78.4131C62.0426 77.7893 61.1381 77.4773 59.9321 77.4773C58.7261 77.4773 57.8217 77.7997 57.2189 78.4445C56.6157 79.089 56.3141 80.0975 56.3141 81.47V82.2186ZM93.8035 105.052C89.3955 105.052 86.0791 103.981 83.8544 101.839C81.6294 99.6969 80.5169 96.0889 80.5169 91.0149V79.7232H77.7723V69.4921C79.3526 69.4921 80.5377 69.0866 81.3279 68.2758C82.118 67.4646 82.5131 66.352 82.5131 64.9379V62.1306H95.7373V69.4921H104.158V79.7232H95.7373V89.9543C95.7373 91.3268 96.0388 92.3355 96.642 92.9803C97.2448 93.6247 98.1492 93.947 99.3552 93.947C100.935 93.947 102.661 93.7598 104.533 93.3855V103.18C103.368 103.637 101.798 104.064 99.8233 104.459C97.8478 104.854 95.8412 105.052 93.8035 105.052Z" fill="#F5D7DB"/>
<path fill-rule="evenodd" clip-rule="evenodd" d="M106.191 16.9512C104.339 21.3982 100.258 23.9289 97.0752 22.6036C93.8925 21.2783 92.8135 16.5989 94.6652 12.1518C96.5169 7.70476 100.598 5.17406 103.781 6.49935C106.964 7.82465 108.043 12.5041 106.191 16.9512ZM109.812 28.4696C112.995 29.7949 117.076 27.2642 118.928 22.8171C120.78 18.37 119.701 13.6906 116.518 12.3653C113.335 11.04 109.254 13.5707 107.402 18.0178C105.55 22.4648 106.629 27.1443 109.812 28.4696ZM91.35 19.7515C91.0442 23.4119 88.4648 26.1846 85.5887 25.9443C82.7127 25.7041 80.629 22.5419 80.9348 18.8815C81.2405 15.221 83.8199 12.4484 86.696 12.6886C89.5721 12.9288 91.6557 16.091 91.35 19.7515ZM123.061 37.428C120.642 40.1928 116.921 40.8938 114.749 38.9937C112.576 37.0936 112.776 33.3119 115.194 30.5471C117.612 27.7822 121.334 27.0813 123.506 28.9814C125.678 30.8815 125.479 34.6631 123.061 37.428ZM82.4153 33.1157C77.6671 39.9663 83.7917 43.1285 94.1337 45.4149C98.0672 49.4928 106.901 54.8127 110.072 48.6531C119.896 29.5723 96.9077 12.2064 82.4153 33.1157Z" fill="#F5D7DB"/>
</svg>
