<svg width="170" height="159" viewBox="0 0 170 159" fill="none" xmlns="http://www.w3.org/2000/svg">
<path d="M49.6341 82.1918L50.666 31.8519L37.3545 78.6751H27.7579L15.272 33.1581C15.3408 41.3304 15.4956 49.5697 15.7364 57.8759C15.9771 66.1822 16.1663 74.2875 16.3039 82.1918H0C0.137586 75.2923 0.240783 68.443 0.309576 61.6439C0.378369 54.8448 0.412761 47.9955 0.412761 41.0959C0.412761 34.1964 0.378369 27.347 0.309576 20.548C0.240783 13.7489 0.137586 6.89956 0 0H22.0825L33.0206 47.1247L45.3001 0H66.1444C65.938 13.6651 65.8348 27.3638 65.8348 41.0959C65.8348 54.8281 65.938 68.5267 66.1444 82.1918H49.6341ZM71.7166 22.1054H84.7184L85.4408 29.7418C86.2663 28.4691 87.2638 27.2968 88.4333 26.225C89.6027 25.1532 90.8238 24.2322 92.0965 23.4618C93.3691 22.6915 94.6418 22.0886 95.9145 21.6532C97.1871 21.2178 98.3738 21.0001 99.4745 21.0001C99.6121 22.7417 99.7325 24.7346 99.8357 26.9786C99.9389 29.2226 99.9905 31.5169 99.9905 33.8614C99.9905 36.5409 99.9389 39.1868 99.8357 41.7993C99.7325 44.4117 99.6121 46.8232 99.4745 49.0338C98.8554 48.7658 97.9955 48.5649 96.8948 48.4309C95.7941 48.2969 94.8654 48.2299 94.1087 48.2299C91.5633 48.2299 89.6887 48.8161 88.4848 49.9883C87.281 51.1606 86.679 52.6175 86.679 54.3592V82.1918H71.5102C71.579 71.3401 71.6306 61.041 71.665 51.2945C71.6994 41.5481 71.7166 31.8184 71.7166 22.1054ZM109.277 61.6941C110.997 61.6941 112.528 62.0291 113.869 62.6989C115.211 63.3688 116.346 64.2229 117.275 65.2611C118.203 66.2994 118.908 67.4382 119.39 68.6774C119.872 69.9167 120.112 71.1057 120.112 72.2444C120.112 73.7181 119.82 75.1248 119.235 76.4646C118.651 77.8043 117.859 78.9765 116.862 79.9813C115.864 80.9861 114.695 81.7899 113.353 82.3928C112.012 82.9957 110.619 83.2971 109.174 83.2971C107.317 83.2971 105.7 83.0124 104.324 82.443C102.949 81.8737 101.813 81.1033 100.919 80.132C100.025 79.1607 99.3541 78.0722 98.907 76.8664C98.4598 75.6607 98.2362 74.4215 98.2362 73.1487C98.2362 71.809 98.477 70.4525 98.9586 69.0793C99.4401 67.7061 100.145 66.4669 101.074 65.3616C102.003 64.2563 103.155 63.3688 104.531 62.6989C105.907 62.0291 107.489 61.6941 109.277 61.6941Z" fill="#06142E"/>
<path d="M0.0671387 158.415V144.683H3.85075V107.003H0.0671387V93.2713H23.6287V98.9651C25.0619 97.1788 26.9108 95.5879 29.1755 94.1924C31.4397 92.7968 34.0336 92.099 36.9573 92.099C42.8047 92.099 47.2047 94.2203 50.1573 98.4627C53.1094 102.705 54.5855 108.734 54.5855 116.549C54.5855 124.364 53.1094 130.393 50.1573 134.635C47.2047 138.878 42.8047 140.999 36.9573 140.999C34.0336 140.999 31.4397 140.301 29.1755 138.906C26.9108 137.51 25.0619 135.919 23.6287 134.133V144.683H29.5621V158.415H0.0671387ZM28.6162 126.094C30.2787 126.094 31.5257 125.662 32.3571 124.797C33.1881 123.931 33.6037 122.578 33.6037 120.736V112.362C33.6037 110.52 33.1881 109.167 32.3571 108.302C31.5257 107.436 30.2787 107.003 28.6162 107.003C26.9537 107.003 25.7069 107.436 24.8759 108.302C24.0444 109.167 23.6287 110.52 23.6287 112.362V120.736C23.6287 122.578 24.0444 123.931 24.8759 124.797C25.7069 125.662 26.9537 126.094 28.6162 126.094ZM82.6186 140.999C74.4781 140.999 68.1148 138.92 63.5286 134.761C58.9424 130.602 56.6493 124.531 56.6493 116.549C56.6493 108.566 58.9424 102.496 63.5286 98.3374C68.1148 94.1785 74.4781 92.099 82.6186 92.099C90.7018 92.099 96.5349 94.1506 100.118 98.2537C103.701 102.356 105.492 107.45 105.492 113.535V119.563H77.6311V120.066C77.6311 122.131 78.2617 123.652 79.5229 124.629C80.7841 125.606 82.8766 126.094 85.8003 126.094C89.2972 126.094 92.6222 125.843 95.7752 125.341C98.9282 124.838 101.68 124.197 104.03 123.415V136.812C102.024 137.873 99.086 138.836 95.2166 139.701C91.3468 140.566 87.1475 140.999 82.6186 140.999ZM77.6311 110.353H87.6061V109.348C87.6061 107.45 87.1906 106.082 86.3595 105.245C85.5281 104.408 84.2811 103.989 82.6186 103.989C80.9561 103.989 79.7093 104.422 78.8783 105.287C78.0468 106.152 77.6311 107.506 77.6311 109.348V110.353ZM129.312 140.999C123.235 140.999 118.663 139.562 115.597 136.687C112.529 133.812 110.996 128.969 110.996 122.159V107.003H107.212V93.2713C109.39 93.2713 111.024 92.7271 112.114 91.6388C113.203 90.5501 113.747 89.0568 113.747 87.1588V83.3909H131.977V93.2713H143.586V107.003H131.977V120.736C131.977 122.578 132.393 123.931 133.225 124.797C134.056 125.662 135.302 126.094 136.965 126.094C139.143 126.094 141.522 125.843 144.102 125.341V138.487C142.497 139.101 140.333 139.673 137.61 140.204C134.887 140.734 132.121 140.999 129.312 140.999Z" fill="#06142E"/>
<path fill-rule="evenodd" clip-rule="evenodd" d="M141.456 22.7522C138.97 28.721 133.492 32.1177 129.22 30.3389C124.949 28.5601 123.5 22.2794 125.986 16.3106C128.471 10.3418 133.949 6.94513 138.221 8.72393C142.493 10.5027 143.941 16.7834 141.456 22.7522ZM146.316 38.2117C150.588 39.9905 156.066 36.5938 158.551 30.625C161.037 24.6561 159.588 18.3755 155.317 16.5967C151.045 14.8179 145.567 18.2146 143.081 24.1834C140.596 30.1522 142.044 36.4329 146.316 38.2117ZM121.537 26.5106C121.126 31.4236 117.664 35.145 113.804 34.8226C109.944 34.5001 107.147 30.2559 107.557 25.3429C107.968 20.4298 111.43 16.7084 115.29 17.0309C119.15 17.3533 121.947 21.5975 121.537 26.5106ZM164.098 50.236C160.853 53.9469 155.858 54.8878 152.942 52.3375C150.026 49.7872 150.294 44.7115 153.54 41.0006C156.785 37.2897 161.78 36.3488 164.696 38.8991C167.612 41.4494 167.344 46.5251 164.098 50.236ZM109.545 44.4482C103.172 53.643 111.392 57.8873 125.273 60.9561C130.552 66.4294 142.408 73.5697 146.665 65.3024C159.85 39.6924 128.996 16.3839 109.545 44.4482Z" fill="#06142E"/>
</svg>
