<svg width="60" height="46" viewBox="0 0 60 46" fill="none" xmlns="http://www.w3.org/2000/svg">
<path d="M11.0977 0.972656V8.33247H13.0542C16.1099 8.33247 18.596 5.8922 18.596 2.89301V0.972656H11.0977Z" fill="#F5D7DB"/>
<path d="M52.501 0.943848V2.86432C52.501 5.86362 54.9871 8.30378 58.0428 8.30378H59.9993V0.943848H52.501Z" fill="#F5D7DB"/>
<path d="M58.0428 20.3879C54.9871 20.3879 52.501 22.8282 52.501 25.8275V27.7479H59.9993V20.3881H58.0428V20.3879Z" fill="#F5D7DB"/>
<path d="M31.6513 21.5632H4.65422C2.08793 21.5635 0 23.6126 0 26.1316V28.286H36.3055V26.1316C36.3055 23.6126 34.2176 21.5632 31.6513 21.5632Z" fill="#F5D7DB"/>
<path d="M0 32.1272V40.488C0 43.0069 2.08793 45.0563 4.65422 45.0563H31.6515C34.2178 45.0563 36.3057 43.007 36.3057 40.488V32.1272H0ZM11.0974 38.6217H5.49879V34.7808H11.0974V38.6217Z" fill="#F5D7DB"/>
<path d="M58.0437 12.1447C52.8303 12.1447 48.5889 7.98149 48.5889 2.86445V0.944092H22.509V2.86456C22.509 7.98172 18.2675 12.1449 13.0542 12.1449H11.0977V17.7226H26.4342C25.7693 16.7039 25.3943 15.5581 25.3943 14.346C25.3943 10.1171 29.9407 6.68872 35.5489 6.68872C41.1571 6.68872 45.7036 10.117 45.7036 14.346C45.7036 17.7021 42.8388 20.5521 38.8536 21.5863C39.7159 22.8981 40.2187 24.4578 40.2187 26.1317V27.7479H48.5889V25.8275C48.5889 20.7103 52.8303 16.5471 58.0437 16.5471H60.0002V12.1449L58.0437 12.1447Z" fill="#F5D7DB"/>
</svg>
