<svg width="52" height="49" viewBox="0 0 52 49" fill="none" xmlns="http://www.w3.org/2000/svg">
<path d="M52 6.35431H13.65L12.5525 0H2.83551C1.26703 0 0 1.26359 0 2.82375V5.64632H7.77409L12.7763 34.6094C12.887 35.247 13.5028 35.7639 14.154 35.7639H47.7456C49.314 35.7639 50.5834 34.5015 50.5834 32.9379V30.1176H17.7549L17.0637 26.1159H43.0189C46.1512 26.1159 49.1092 23.6215 49.6261 20.5481L52 6.35431Z" fill="#F5D7DB"/>
<path d="M22.9267 49C25.6353 49 27.8311 46.8142 27.8311 44.1179C27.8311 41.4216 25.6353 39.2358 22.9267 39.2358C20.218 39.2358 18.0222 41.4216 18.0222 44.1179C18.0222 46.8142 20.218 49 22.9267 49Z" fill="#F5D7DB"/>
<path d="M35.0459 44.1169C35.0459 46.8117 37.2396 48.9978 39.9468 48.9978C42.6563 48.9978 44.8548 46.8117 44.8548 44.1169C44.8548 41.4221 42.6563 39.2336 39.9468 39.2336C37.2396 39.2336 35.0459 41.4232 35.0459 44.1169Z" fill="#F5D7DB"/>
</svg>
