<svg width="45" height="60" viewBox="0 0 45 60" fill="none" xmlns="http://www.w3.org/2000/svg">
<path fill-rule="evenodd" clip-rule="evenodd" d="M2.44656 9.32934C-0.815601 18.4859 -0.815907 40.6154 2.44656 49.7728L1.52432 56.3121C1.49 56.4705 1.47162 56.6351 1.47162 56.8039C1.47162 58.073 2.50048 59.1018 3.76956 59.1018H3.77569H40.517C41.1825 59.1018 41.8152 58.8135 42.2518 58.311C42.6881 57.8089 42.8854 57.1418 42.7923 56.4828L41.8446 49.7725C45.1065 40.6147 45.1065 18.4856 41.8446 9.32903L42.7911 2.61904C42.8839 1.95999 42.6866 1.29328 42.2503 0.790798C41.8137 0.288315 41.181 0 40.5155 0H3.77354C3.10775 0 2.47505 0.288622 2.03875 0.790798C1.60214 1.29328 1.40513 1.9603 1.49827 2.61935L2.44656 9.32934ZM37.845 11.8834C40.3124 20.2378 40.3124 38.8631 37.845 47.2184H6.44529C3.9776 38.8634 3.9776 20.2381 6.44529 11.8834H37.845ZM6.79947 7.28754L6.41894 4.59588H37.8704L37.4908 7.28754H6.79947ZM37.4911 51.8143L37.8713 54.506H6.42016L6.79978 51.8143H37.4911ZM28.4141 33.1915C28.4141 29.7348 25.6018 26.9227 22.145 26.9227C18.6883 26.9227 15.8766 29.7348 15.8766 33.1915C15.8766 36.6482 18.6886 39.4603 22.145 39.4603C25.6018 39.4603 28.4141 36.6482 28.4141 33.1915ZM25.8616 24.943C24.4001 24.943 23.2113 23.7539 23.2113 22.2925C23.2113 20.831 24.4001 19.6419 25.8616 19.6419C27.3234 19.6419 28.5125 20.831 28.5125 22.2925C28.5125 23.7539 27.3234 24.943 25.8616 24.943ZM21.0786 22.2922C21.0786 20.8307 19.8898 19.6416 18.4283 19.6416C16.9665 19.6416 15.7774 20.8307 15.7774 22.2922C15.7774 23.7537 16.9665 24.9428 18.4283 24.9428C19.8898 24.9428 21.0786 23.7537 21.0786 22.2922ZM31.2159 25.0798C32.5398 25.0798 33.6168 26.1567 33.6168 27.4807C33.6168 28.8046 32.5398 29.8815 31.2159 29.8815C29.892 29.8815 28.815 28.8046 28.815 27.4807C28.815 26.1567 29.892 25.0798 31.2159 25.0798ZM15.475 27.4807C15.475 26.1567 14.3981 25.0798 13.0742 25.0798C11.7502 25.0798 10.6733 26.1567 10.6733 27.4807C10.6733 28.8046 11.7502 29.8815 13.0742 29.8815C14.3981 29.8815 15.475 28.8046 15.475 27.4807Z" fill="white"/>
</svg>
