<svg width="38" height="63" viewBox="0 0 38 63" fill="none" xmlns="http://www.w3.org/2000/svg">
<path d="M26.6942 0.0798561C23.8539 0.079871 21.1777 1.16172 19.1354 3.13106C17.1355 1.19953 14.4435 0.0794788 11.5687 0.0799408C8.65731 0.0799563 5.91898 1.21457 3.85862 3.27492C1.79827 5.33528 0.663432 8.07339 0.663641 10.9841C0.662955 13.8989 1.79754 16.6385 3.85787 18.6989C5.74021 20.5812 8.18918 21.6908 10.8233 21.8683L10.8252 40.3987C8.19244 40.5758 5.74189 41.686 3.85864 43.5693C1.79851 45.6294 0.663893 48.3686 0.664101 51.2825C0.663638 54.1939 1.79822 56.9318 3.85856 58.9921C5.91912 61.0527 8.65856 62.1875 11.5726 62.1875C14.4134 62.187 17.0893 61.1049 19.1314 59.1358C21.1315 61.0671 23.8236 62.1872 26.6981 62.1874C29.6099 62.1869 32.3481 61.0521 34.4082 58.9924L34.4089 58.9917C36.4685 56.932 37.6029 54.1944 37.6032 51.2832C37.6038 48.3684 36.4695 45.6285 34.4094 43.5684C32.5259 41.685 30.0749 40.5756 27.4435 40.3995L27.4414 21.868C30.0744 21.6907 32.5254 20.5804 34.4086 18.6972C36.4685 16.6373 37.6031 13.898 37.6029 10.9846C37.6036 8.07342 36.469 5.33554 34.4087 3.27521C32.3477 1.2151 29.608 0.0800658 26.6942 0.0798561ZM32.859 10.9844C32.859 12.6311 32.2179 14.1791 31.0538 15.3432C29.889 16.508 28.3401 17.1496 26.6918 17.1498C26.313 17.1498 25.9184 17.1107 25.5181 17.0333C24.8231 16.8992 24.1044 17.0825 23.5586 17.5331C23.0117 17.983 22.6966 18.6545 22.6966 19.3625L22.6994 42.9057C22.6996 43.6143 23.0164 44.2858 23.5634 44.7362C24.1106 45.1867 24.8304 45.369 25.5256 45.2333C25.9231 45.1554 26.3053 45.1181 26.6962 45.1181C28.3426 45.1179 29.8902 45.7585 31.0541 46.9224C32.218 48.0867 32.8588 49.635 32.8588 51.2825C32.8586 52.9272 32.2177 54.4737 31.0538 55.6376C29.8895 56.8019 28.3414 57.4439 26.6965 57.4439C24.3983 57.4439 22.3053 56.1738 21.234 54.1294C20.8246 53.3479 20.0153 52.8584 19.1332 52.8582C18.4945 52.8582 17.8942 53.1147 17.4559 53.5529C17.2888 53.72 17.1453 53.9132 17.0324 54.129C16.7408 54.6853 16.3671 55.1931 15.9215 55.6388C14.7578 56.8025 13.2129 57.4436 11.5713 57.4438C9.92466 57.4438 8.37661 56.8023 7.21183 55.6375C6.04772 54.4734 5.40664 52.9267 5.40687 51.2825C5.4071 49.6356 6.04821 48.0875 7.21233 46.9234C8.37712 45.7586 9.92607 45.1171 11.5716 45.1168C11.952 45.117 12.348 45.1562 12.7489 45.2333C13.4437 45.3673 14.1619 45.1834 14.7073 44.7329C15.2527 44.2814 15.5689 43.6115 15.5684 42.904L15.5661 19.3612C15.5663 18.653 15.2495 17.9819 14.7032 17.5314C14.1569 17.0808 13.4378 16.8979 12.7428 17.0329C12.3477 17.1096 11.9517 17.1488 11.57 17.1494C9.92376 17.1495 8.37571 16.5084 7.21204 15.3443C6.04771 14.1799 5.40663 12.6314 5.40708 10.9839C5.40709 9.33945 6.04819 7.79273 7.21276 6.62816C8.37733 5.4636 9.92449 4.8225 11.5696 4.82271C13.8681 4.82248 15.9608 6.09234 17.0317 8.13681C17.4409 8.91855 18.2501 9.40803 19.1323 9.40825C20.0144 9.40847 20.8239 8.91875 21.2333 8.13723C21.5247 7.58111 21.8986 7.07307 22.3442 6.62741C23.5081 5.46352 25.0528 4.82264 26.6939 4.82241C28.3408 4.82263 29.8893 5.46415 31.0541 6.62893C32.2184 7.79416 32.8595 9.34042 32.859 10.9844Z" fill="white"/>
</svg>
