<svg width="59" height="52" viewBox="0 0 59 52" fill="none" xmlns="http://www.w3.org/2000/svg">
<path d="M53.5307 0H21.4896C18.5525 0 16.1494 2.46316 16.1494 5.47368V10.9474C7.33815 10.9474 0.128906 18.3368 0.128906 27.3684V43.7895H5.46909C5.46909 48.3244 9.05502 52 13.4794 52C17.9037 52 21.4896 48.3244 21.4896 43.7895H32.17C32.17 48.3244 35.7559 52 40.1803 52C44.6046 52 48.1905 48.3244 48.1905 43.7895H53.5307C56.4678 43.7895 58.8709 41.3263 58.8709 38.3158V5.47368C58.8709 2.46316 56.4678 0 53.5307 0ZM42.8503 43.7895C42.8503 45.2988 41.6528 46.5263 40.1803 46.5263C38.7077 46.5263 37.5102 45.2988 37.5102 43.7895C37.5102 42.2801 38.7077 41.0526 40.1803 41.0526C41.6528 41.0526 42.8503 42.2801 42.8503 43.7895ZM13.4794 46.5263C12.0068 46.5263 10.8093 45.2988 10.8093 43.7895C10.8093 42.2801 12.0068 41.0526 13.4794 41.0526C14.9519 41.0526 16.1494 42.2801 16.1494 43.7895C16.1494 45.2988 14.9519 46.5263 13.4794 46.5263ZM16.1494 15.0526V20.5263C13.6636 20.5263 11.5943 22.2752 10.9975 24.6316H4.44244C5.66267 19.1552 10.4435 15.0526 16.1494 15.0526Z" fill="#F5D7DB"/>
</svg>
