<svg width="53" height="52" viewBox="0 0 53 52" fill="none" xmlns="http://www.w3.org/2000/svg">
<path d="M36.354 19.5C36.354 22.0859 35.3313 24.5658 33.5108 26.3943C31.6903 28.2228 29.2213 29.25 26.6467 29.25C24.0722 29.25 21.6031 28.2228 19.7826 26.3943C17.9622 24.5658 16.9395 22.0859 16.9395 19.5C16.9395 16.9141 17.9622 14.4342 19.7826 12.6057C21.6031 10.7772 24.0722 9.75 26.6467 9.75C29.2213 9.75 31.6903 10.7772 33.5108 12.6057C35.3313 14.4342 36.354 16.9141 36.354 19.5Z" fill="#F5D7DB"/>
<path fill-rule="evenodd" clip-rule="evenodd" d="M0.760742 26C0.760742 19.1044 3.48802 12.4912 8.3426 7.61522C13.1972 2.73928 19.7814 0 26.6468 0C33.5122 0 40.0964 2.73928 44.951 7.61522C49.8056 12.4912 52.5329 19.1044 52.5329 26C52.5329 32.8956 49.8056 39.5088 44.951 44.3848C40.0964 49.2607 33.5122 52 26.6468 52C19.7814 52 13.1972 49.2607 8.3426 44.3848C3.48802 39.5088 0.760742 32.8956 0.760742 26ZM26.6468 3.25C22.3814 3.25023 18.2027 4.46018 14.5917 6.74059C10.9807 9.021 8.08418 12.2792 6.23553 16.1401C4.38688 20.0011 3.66123 24.3079 4.1421 28.5648C4.62298 32.8217 6.29082 36.8557 8.95368 40.2025C11.2511 36.4845 16.3086 32.5 26.6468 32.5C36.9851 32.5 42.0393 36.4813 44.3399 40.2025C47.0028 36.8557 48.6706 32.8217 49.1515 28.5648C49.6324 24.3079 48.9067 20.0011 47.0581 16.1401C45.2094 12.2792 42.3129 9.021 38.7019 6.74059C35.091 4.46018 30.9123 3.25023 26.6468 3.25Z" fill="#F5D7DB"/>
</svg>
