<svg width="309" height="192" viewBox="0 0 309 192" fill="none" xmlns="http://www.w3.org/2000/svg">
<path fill-rule="evenodd" clip-rule="evenodd" d="M177.426 1.67539C180.272 0.502618 183.12 0 186.136 0C199.037 0 209.424 10.3858 209.089 23.1204L208.927 101.502C209.996 102.022 210.967 102.745 211.78 103.642C213.452 105.488 214.323 107.922 214.2 110.41L212.042 154.18C211.919 156.667 210.813 159.004 208.967 160.676C207.122 162.348 204.687 163.219 202.2 163.096C199.712 162.974 197.375 161.868 195.703 160.022C194.031 158.176 193.16 155.742 193.283 153.254L193.521 148.428C174.985 174.628 141.849 192 104.545 192C49.7592 192 3.8534 154.304 0.167539 106.222V104.377L0 23.288C0 10.3874 10.3874 0 23.288 0C26.3037 0 29.1518 0.502618 32 1.67539L64.8377 14.911C77.5707 10.3874 90.9738 8.04188 104.712 8.04188C118.618 8.04188 132.021 10.3874 144.586 14.911L177.426 1.67539ZM104.712 165.192C145.759 165.192 179.937 138.386 182.45 104.208V28.3125L153.298 40.2077C147.936 42.5533 141.737 42.5533 136.377 40.5428C126.325 36.6894 115.602 34.8465 104.545 34.8465C93.4869 34.8465 82.9319 36.857 72.8796 40.5428C67.5183 42.5533 61.3194 42.3858 55.9581 40.2077L26.8063 28.3125L26.9738 104.208C29.6545 138.386 63.8325 165.192 104.712 165.192ZM87.6223 106.22C87.6223 115.473 80.1213 122.974 70.8684 122.974C61.6155 122.974 54.1145 115.473 54.1145 106.22C54.1145 96.9669 61.6155 89.466 70.8684 89.466C80.1213 89.466 87.6223 96.9669 87.6223 106.22ZM138.556 122.974C147.809 122.974 155.309 115.473 155.309 106.22C155.309 96.9669 147.809 89.466 138.556 89.466C129.303 89.466 121.802 96.9669 121.802 106.22C121.802 115.473 129.303 122.974 138.556 122.974ZM256.272 52.9385C263.513 53.2956 272.471 60.0054 272.008 69.3846C271.546 78.7638 268.119 97.4114 268.119 97.4114L294.287 98.7018C304.085 99.185 308.455 105.656 307.992 115.035C307.794 119.056 306.867 121.078 305.863 123.26C305.308 124.462 304.732 125.718 304.249 127.387C303.789 128.962 303.835 130.695 303.887 132.571C303.966 135.665 304.052 139.142 301.915 142.942C300.124 146.127 297.829 148.179 295.809 149.985L295.755 150.034C293.92 151.655 292.32 153.086 291.513 154.965L291.42 155.186L291.416 155.194C290.024 158.461 286.282 167.243 272.688 166.572L249.096 165.409C228.774 164.407 224.316 159.486 225.035 145.418L226.862 108.37C235.076 103.98 244.206 88.3971 247.237 75.998C248.369 71.372 248.98 67.4056 249.483 64.1313L249.502 64.0125C250.65 56.4973 251.232 52.69 256.272 52.9385Z" fill="#06142E"/>
</svg>
