<svg width="373" height="232" viewBox="0 0 373 232" fill="none" xmlns="http://www.w3.org/2000/svg">
<path fill-rule="evenodd" clip-rule="evenodd" d="M214.389 2.02443C217.829 0.60733 221.271 0 224.914 0C240.503 0 253.054 12.5495 252.649 27.9372L252.454 122.648C253.745 123.276 254.918 124.15 255.901 125.234C257.922 127.465 258.974 130.406 258.825 133.412L256.217 186.3C256.069 189.306 254.733 192.13 252.503 194.15C250.273 196.171 247.331 197.223 244.325 197.074C241.319 196.926 238.496 195.59 236.475 193.36C234.455 191.13 233.403 188.188 233.551 185.182L233.839 179.35C211.441 211.008 171.402 232 126.325 232C60.1257 232 4.6562 186.45 0.202443 128.351V126.122L0 28.1396C0 12.5515 12.5515 0 28.1396 0C31.7836 0 35.2251 0.60733 38.6667 2.02443L78.3456 18.0174C93.7312 12.5515 109.927 9.71728 126.527 9.71728C143.33 9.71728 159.525 12.5515 174.709 18.0174L214.389 2.02443ZM126.527 199.607C176.126 199.607 217.424 167.216 220.461 125.918V34.2109L185.236 48.5844C178.755 51.4186 171.265 51.4186 164.789 48.9892C152.642 44.333 139.686 42.1062 126.325 42.1062C112.963 42.1062 100.209 44.5355 88.0628 48.9892C81.5846 51.4186 74.0942 51.2161 67.6161 48.5844L32.3909 34.2109L32.5934 125.918C35.8325 167.216 77.1309 199.607 126.527 199.607ZM105.877 128.349C105.877 139.53 96.8133 148.593 85.6326 148.593C74.452 148.593 65.3883 139.53 65.3883 128.349C65.3883 117.168 74.452 108.105 85.6326 108.105C96.8133 108.105 105.877 117.168 105.877 128.349ZM167.421 148.593C178.602 148.593 187.666 139.53 187.666 128.349C187.666 117.168 178.602 108.105 167.421 108.105C156.241 108.105 147.177 117.168 147.177 128.349C147.177 139.53 156.241 148.593 167.421 148.593ZM309.662 63.9673C318.412 64.3988 329.236 72.5064 328.677 83.8396C328.118 95.1728 323.978 117.705 323.978 117.705L355.597 119.265C367.437 119.848 372.716 127.668 372.158 139.001C371.918 143.859 370.798 146.303 369.585 148.939C368.915 150.391 368.219 151.909 367.635 153.925C367.079 155.829 367.135 157.922 367.197 160.19C367.293 163.929 367.396 168.13 364.814 172.721C362.65 176.57 359.877 179.05 357.436 181.232L357.371 181.291C355.153 183.249 353.22 184.979 352.245 187.249L352.133 187.516L352.129 187.526C350.446 191.474 345.924 202.085 329.498 201.275L300.991 199.869C276.436 198.658 271.049 192.712 271.917 175.714L274.125 130.947C284.051 125.643 295.083 106.813 298.745 91.8309C300.114 86.2407 300.851 81.4476 301.46 77.491L301.482 77.3483C302.869 68.2675 303.573 63.667 309.662 63.9673Z" fill="black"/>
</svg>
