<svg width="79" height="79" viewBox="0 0 79 79" fill="none" xmlns="http://www.w3.org/2000/svg">
<path d="M74.8615 17.986C72.2605 15.385 68.819 13.9249 65.1454 13.8582C65.0827 10.2579 63.6431 6.76691 61.0101 4.13477C58.344 1.46863 54.7973 0 51.0237 0C47.2501 0 43.7034 1.46822 41.0381 4.13395C38.3682 6.80254 36.8983 10.3504 36.8983 14.124C36.8983 17.5715 38.1249 20.8303 40.3746 23.4051L23.407 40.3762C20.8338 38.1274 17.5729 36.9 14.1237 36.9C10.3505 36.9 6.80302 38.3694 4.13481 41.038C1.46823 43.7038 0 47.25 0 51.0236C0 54.7975 1.46946 58.3454 4.13809 61.014C6.73995 63.615 10.1814 65.0746 13.8546 65.1414C13.9177 68.7417 15.3573 72.2327 17.9894 74.8652C20.6564 77.5314 24.2031 78.9996 27.9759 79H27.9771C31.7495 79 35.2954 77.5318 37.9615 74.866C40.6314 72.1974 42.1017 68.6496 42.1017 64.8764C42.1017 61.4268 40.873 58.1664 38.6246 55.5953L55.593 38.623C58.1666 40.8718 61.4279 42.0996 64.8771 42.0996C68.6499 42.0996 72.1974 40.6301 74.8652 37.962C77.5318 35.2966 79 31.7504 79 27.9768C78.9992 24.2029 77.5297 20.6546 74.8615 17.986ZM70.5211 33.6175C69.0131 35.1254 67.0084 35.956 64.8763 35.956C62.7429 35.956 60.737 35.125 59.2274 33.6159C58.8805 33.269 58.5549 32.8717 58.2592 32.4343C57.7456 31.675 56.9196 31.1848 56.0071 31.0976C55.0942 31.0087 54.1907 31.3351 53.5424 31.9834L31.985 53.546C31.3363 54.1951 31.0115 55.1002 31.0999 56.0135C31.1884 56.9272 31.6807 57.7532 32.4416 58.2656C32.877 58.5584 33.2611 58.8741 33.6191 59.2321C35.127 60.7396 35.9576 62.7435 35.9576 64.8752C35.9572 67.0073 35.1262 69.012 33.6174 70.5208C32.1111 72.0267 30.108 72.856 27.9763 72.856C25.8438 72.856 23.8382 72.0263 22.3319 70.52C20.2272 68.4153 19.4737 65.3355 20.3648 62.4822C20.7056 61.3916 20.4128 60.2023 19.6051 59.3943C19.0203 58.8094 18.2356 58.4945 17.4329 58.4945C17.1269 58.4945 16.8186 58.54 16.5175 58.6341C15.741 58.8766 14.9338 58.9995 14.1176 58.9995C11.9863 58.9995 9.9844 58.1718 8.48095 56.6687C6.97299 55.1608 6.14283 53.1557 6.14283 51.0223C6.14283 48.8903 6.97217 46.8868 8.47808 45.3813C9.98645 43.8733 11.9912 43.0428 14.1233 43.0428C16.2566 43.0428 18.2626 43.8737 19.7698 45.3805C20.1179 45.729 20.4447 46.1275 20.7412 46.5653C21.2548 47.3241 22.0808 47.8136 22.9929 47.9004C23.9058 47.9864 24.8089 47.6624 25.4564 47.0141L47.0138 25.4524C47.6625 24.8041 47.9869 23.8994 47.8992 22.9865C47.8116 22.0737 47.3205 21.2476 46.5604 20.7349C46.1283 20.4433 45.7299 20.1164 45.3797 19.7675C43.8721 18.26 43.0416 16.2552 43.042 14.1236C43.042 11.9911 43.873 9.98594 45.3821 8.47758C46.8881 6.97168 48.8916 6.14235 51.0245 6.14235C53.1574 6.14235 55.1614 6.97209 56.6677 8.47881C58.7728 10.5835 59.5263 13.6628 58.6348 16.5157C58.2936 17.6063 58.5864 18.7957 59.3941 19.6037C60.2017 20.4117 61.3914 20.7045 62.4821 20.3638C63.2582 20.1214 64.0658 19.9985 64.882 19.9985C67.0137 19.9985 69.0152 20.8262 70.5182 22.3288C72.0262 23.8372 72.8568 25.8427 72.8568 27.976C72.8559 30.1093 72.027 32.1124 70.5211 33.6175Z" fill="#9DB0CE"/>
</svg>
