<svg width="63" height="60" viewBox="0 0 63 60" fill="none" xmlns="http://www.w3.org/2000/svg">
<path d="M8.98383 42.7847C8.29693 51.0562 14.5363 57.8107 22.8364 57.8107H36.5457C45.8761 57.8107 52.2872 50.2834 50.7417 41.0674C49.1103 31.3936 39.7799 23.4656 29.9629 23.4656C19.316 23.4656 9.87108 32.1663 8.98383 42.7847Z" stroke="white" stroke-width="4" stroke-linecap="round" stroke-linejoin="round"/>
<path d="M26.3279 16.3105C30.2796 16.3105 33.4832 13.107 33.4832 9.15523C33.4832 5.20351 30.2796 2 26.3279 2C22.3761 2 19.1726 5.20351 19.1726 9.15523C19.1726 13.107 22.3761 16.3105 26.3279 16.3105Z" stroke="white" stroke-width="4" stroke-linecap="round" stroke-linejoin="round"/>
<path d="M45.876 19.745C49.0375 19.745 51.6002 17.1822 51.6002 14.0208C51.6002 10.8594 49.0375 8.29663 45.876 8.29663C42.7149 8.29663 40.1519 10.8594 40.1519 14.0208C40.1519 17.1822 42.7149 19.745 45.876 19.745Z" stroke="white" stroke-width="4" stroke-linecap="round" stroke-linejoin="round"/>
<path d="M56.4657 31.1934C58.8367 31.1934 60.7589 29.2712 60.7589 26.9002C60.7589 24.529 58.8367 22.6069 56.4657 22.6069C54.0948 22.6069 52.1726 24.529 52.1726 26.9002C52.1726 29.2712 54.0948 31.1934 56.4657 31.1934Z" stroke="white" stroke-width="4" stroke-linecap="round" stroke-linejoin="round"/>
<path d="M7.72419 25.4693C10.8856 25.4693 13.4484 22.9063 13.4484 19.7449C13.4484 16.5836 10.8856 14.0208 7.72419 14.0208C4.5628 14.0208 2 16.5836 2 19.7449C2 22.9063 4.5628 25.4693 7.72419 25.4693Z" stroke="white" stroke-width="4" stroke-linecap="round" stroke-linejoin="round"/>
</svg>
