<svg width="66" height="62" viewBox="0 0 66 62" fill="none" xmlns="http://www.w3.org/2000/svg">
<path d="M65.4958 8.04014H17.1926L15.8104 0H3.57142C1.59587 0 0 1.59883 0 3.5729V7.14432H9.79174L16.0922 43.7914C16.2316 44.5983 17.0073 45.2523 17.8274 45.2523H60.1372C62.1128 45.2523 63.7116 43.655 63.7116 41.6764V38.108H22.3629L21.4923 33.0445H54.1838C58.129 33.0445 61.8547 29.8884 62.5058 25.9996L65.4958 8.04014Z" fill="#535878"/>
<path d="M28.8769 61.9999C32.2885 61.9999 35.0542 59.2342 35.0542 55.8226C35.0542 52.4109 32.2885 49.6453 28.8769 49.6453C25.4653 49.6453 22.6996 52.4109 22.6996 55.8226C22.6996 59.2342 25.4653 61.9999 28.8769 61.9999Z" fill="#535878"/>
<path d="M44.1414 55.8211C44.1414 59.2309 46.9046 61.997 50.3143 61.997C53.727 61.997 56.4961 59.2309 56.4961 55.8211C56.4961 52.4114 53.727 49.6423 50.3143 49.6423C46.9046 49.6423 44.1414 52.4129 44.1414 55.8211Z" fill="#535878"/>
</svg>
