<svg width="52" height="52" viewBox="0 0 52 52" fill="none" xmlns="http://www.w3.org/2000/svg">
<rect width="52" height="52" rx="26" fill="#535878"/>
<path d="M43.8918 41.4124L32.2054 29.7259C34.0189 27.3814 34.9999 24.5149 34.9999 21.4999C34.9999 17.891 33.5914 14.507 31.0444 11.9555C28.4974 9.40399 25.1044 8 21.4999 8C17.8955 8 14.5025 9.40849 11.9555 11.9555C9.40399 14.5025 8 17.891 8 21.4999C8 25.1044 9.40849 28.4974 11.9555 31.0444C14.5025 33.5959 17.891 34.9999 21.4999 34.9999C24.5149 34.9999 27.3769 34.0189 29.7214 32.2099L41.4079 43.8918C41.4421 43.9261 41.4828 43.9533 41.5276 43.9719C41.5724 43.9904 41.6204 44 41.6689 44C41.7173 44 41.7653 43.9904 41.8101 43.9719C41.8549 43.9533 41.8956 43.9261 41.9299 43.8918L43.8918 41.9344C43.9261 41.9001 43.9533 41.8594 43.9719 41.8146C43.9904 41.7698 44 41.7218 44 41.6734C44 41.6249 43.9904 41.5769 43.9719 41.5321C43.9533 41.4873 43.9261 41.4466 43.8918 41.4124ZM28.6279 28.6279C26.7199 30.5314 24.1909 31.5799 21.4999 31.5799C18.809 31.5799 16.28 30.5314 14.372 28.6279C12.4685 26.7199 11.42 24.1909 11.42 21.4999C11.42 18.809 12.4685 16.2755 14.372 14.372C16.28 12.4685 18.809 11.42 21.4999 11.42C24.1909 11.42 26.7244 12.464 28.6279 14.372C30.5314 16.28 31.5799 18.809 31.5799 21.4999C31.5799 24.1909 30.5314 26.7244 28.6279 28.6279Z" fill="#FEE1DD"/>
</svg>
