<svg width="142" height="59" viewBox="0 0 142 59" fill="none" xmlns="http://www.w3.org/2000/svg">
<g clip-path="url(#clip0_513_2342)">
<path d="M40.5625 22.125C40.5625 25.059 39.397 27.8727 37.3224 29.9474C35.2477 32.022 32.434 33.1875 29.5 33.1875C26.566 33.1875 23.7523 32.022 21.6776 29.9474C19.603 27.8727 18.4375 25.059 18.4375 22.125C18.4375 19.191 19.603 16.3773 21.6776 14.3026C23.7523 12.228 26.566 11.0625 29.5 11.0625C32.434 11.0625 35.2477 12.228 37.3224 14.3026C39.397 16.3773 40.5625 19.191 40.5625 22.125Z" fill="#535878"/>
<path fill-rule="evenodd" clip-rule="evenodd" d="M0 29.5C0 21.6761 3.10803 14.1727 8.64035 8.64035C14.1727 3.10803 21.6761 0 29.5 0C37.3239 0 44.8273 3.10803 50.3596 8.64035C55.892 14.1727 59 21.6761 59 29.5C59 37.3239 55.892 44.8273 50.3596 50.3596C44.8273 55.892 37.3239 59 29.5 59C21.6761 59 14.1727 55.892 8.64035 50.3596C3.10803 44.8273 0 37.3239 0 29.5ZM29.5 3.6875C24.6391 3.68776 19.877 5.06059 15.7619 7.64798C11.6467 10.2354 8.34585 13.9322 6.23912 18.3128C4.13238 22.6935 3.30542 27.5801 3.85343 32.41C4.40144 37.24 6.30213 41.817 9.33675 45.6144C11.9549 41.3959 17.7184 36.875 29.5 36.875C41.2816 36.875 47.0414 41.3922 49.6632 45.6144C52.6979 41.817 54.5986 37.24 55.1466 32.41C55.6946 27.5801 54.8676 22.6935 52.7609 18.3128C50.6541 13.9322 47.3533 10.2354 43.2381 7.64798C39.123 5.06059 34.3609 3.68776 29.5 3.6875Z" fill="#535878"/>
</g>
<path d="M77.1559 25V9.72727H80.8473V15.8572H86.8654V9.72727H90.5494V25H86.8654V18.8626H80.8473V25H77.1559ZM98.2193 25.2163C97.0211 25.2163 95.987 24.9801 95.117 24.5078C94.252 24.0305 93.5858 23.3519 93.1184 22.4719C92.6561 21.587 92.4249 20.5355 92.4249 19.3175C92.4249 18.1342 92.6586 17.1001 93.1259 16.2152C93.5932 15.3253 94.252 14.6342 95.1021 14.142C95.9522 13.6449 96.954 13.3963 98.1074 13.3963C98.9228 13.3963 99.6685 13.5231 100.345 13.7766C101.021 14.0302 101.605 14.4055 102.097 14.9027C102.589 15.3999 102.972 16.0138 103.246 16.7447C103.519 17.4705 103.656 18.3033 103.656 19.2429V20.1527H93.7001V18.0348H100.263C100.258 17.647 100.166 17.3015 99.9867 16.9982C99.8077 16.695 99.5616 16.4588 99.2484 16.2898C98.9402 16.1158 98.5847 16.0288 98.182 16.0288C97.7743 16.0288 97.4089 16.1207 97.0858 16.3047C96.7626 16.4837 96.5066 16.7298 96.3176 17.043C96.1287 17.3512 96.0293 17.7017 96.0194 18.0945V20.2496C96.0194 20.717 96.1113 21.1271 96.2953 21.4801C96.4792 21.8281 96.7402 22.0991 97.0783 22.293C97.4164 22.4869 97.8191 22.5838 98.2864 22.5838C98.6096 22.5838 98.9029 22.5391 99.1664 22.4496C99.4299 22.3601 99.6561 22.2283 99.845 22.0543C100.034 21.8803 100.176 21.6665 100.27 21.413L103.618 21.5099C103.479 22.2607 103.173 22.9144 102.701 23.4712C102.234 24.0231 101.62 24.4531 100.859 24.7614C100.099 25.0646 99.2186 25.2163 98.2193 25.2163ZM109.165 9.72727V25H105.518V9.72727H109.165ZM115.133 9.72727V25H111.486V9.72727H115.133ZM122.801 25.2163C121.598 25.2163 120.563 24.9702 119.698 24.478C118.838 23.9808 118.175 23.2898 117.707 22.4048C117.245 21.5149 117.014 20.4833 117.014 19.31C117.014 18.1317 117.245 17.1001 117.707 16.2152C118.175 15.3253 118.838 14.6342 119.698 14.142C120.563 13.6449 121.598 13.3963 122.801 13.3963C124.004 13.3963 125.035 13.6449 125.896 14.142C126.761 14.6342 127.424 15.3253 127.887 16.2152C128.354 17.1001 128.588 18.1317 128.588 19.31C128.588 20.4833 128.354 21.5149 127.887 22.4048C127.424 23.2898 126.761 23.9808 125.896 24.478C125.035 24.9702 124.004 25.2163 122.801 25.2163ZM122.823 22.4645C123.261 22.4645 123.631 22.3303 123.934 22.0618C124.237 21.7933 124.469 21.4205 124.628 20.9432C124.792 20.4659 124.874 19.9141 124.874 19.2876C124.874 18.6513 124.792 18.0945 124.628 17.6172C124.469 17.1399 124.237 16.767 123.934 16.4986C123.631 16.2301 123.261 16.0959 122.823 16.0959C122.371 16.0959 121.988 16.2301 121.675 16.4986C121.366 16.767 121.13 17.1399 120.966 17.6172C120.807 18.0945 120.728 18.6513 120.728 19.2876C120.728 19.9141 120.807 20.4659 120.966 20.9432C121.13 21.4205 121.366 21.7933 121.675 22.0618C121.988 22.3303 122.371 22.4645 122.823 22.4645ZM83.6662 38.5455V41.2301H76.2983V38.5455H83.6662ZM77.8345 50V37.9638C77.8345 37.0788 78.0011 36.3455 78.3342 35.7638C78.6673 35.1772 79.1296 34.7397 79.7212 34.4513C80.3129 34.158 80.9964 34.0114 81.772 34.0114C82.2791 34.0114 82.7564 34.0511 83.2038 34.1307C83.6563 34.2053 83.9918 34.2724 84.2106 34.332L83.6289 37.0018C83.4947 36.957 83.3306 36.9197 83.1367 36.8899C82.9478 36.8601 82.7688 36.8452 82.5998 36.8452C82.1722 36.8452 81.8789 36.9396 81.7198 37.1286C81.5607 37.3175 81.4812 37.576 81.4812 37.9041V50H77.8345ZM92.8108 45.0558V38.5455H96.45V50H92.9749V47.8672H92.8556C92.602 48.5682 92.1695 49.125 91.558 49.5376C90.9514 49.9453 90.2181 50.1491 89.358 50.1491C88.5775 50.1491 87.8914 49.9702 87.2998 49.6122C86.7082 49.2543 86.2483 48.7546 85.9202 48.1133C85.5921 47.467 85.4255 46.7113 85.4205 45.8462V38.5455H89.0672V45.1303C89.0722 45.7518 89.2362 46.2415 89.5594 46.5994C89.8825 46.9574 90.3225 47.1364 90.8794 47.1364C91.2423 47.1364 91.5679 47.0568 91.8563 46.8977C92.1496 46.7337 92.3808 46.4975 92.5498 46.1893C92.7238 45.8761 92.8108 45.4982 92.8108 45.0558ZM102.418 34.7273V50H98.7711V34.7273H102.418ZM107.968 50.1939C107.237 50.1939 106.588 50.0721 106.022 49.8285C105.46 49.5799 105.015 49.207 104.687 48.7099C104.364 48.2077 104.202 47.5788 104.202 46.8232C104.202 46.1868 104.314 45.6499 104.538 45.2124C104.761 44.7749 105.07 44.4194 105.462 44.146C105.855 43.8725 106.307 43.6662 106.82 43.527C107.332 43.3828 107.878 43.2859 108.46 43.2362C109.111 43.1765 109.636 43.1143 110.034 43.0497C110.431 42.9801 110.72 42.8832 110.899 42.7589C111.083 42.6296 111.175 42.4482 111.175 42.2145V42.1772C111.175 41.7944 111.043 41.4986 110.779 41.2898C110.516 41.081 110.16 40.9766 109.713 40.9766C109.231 40.9766 108.843 41.081 108.55 41.2898C108.256 41.4986 108.07 41.7869 107.99 42.1548L104.627 42.0355C104.726 41.3395 104.983 40.718 105.395 40.1712C105.813 39.6193 106.384 39.1868 107.11 38.8736C107.841 38.5554 108.719 38.3963 109.743 38.3963C110.474 38.3963 111.147 38.4833 111.764 38.6573C112.38 38.8263 112.917 39.0749 113.375 39.4031C113.832 39.7262 114.185 40.1239 114.434 40.5962C114.687 41.0685 114.814 41.608 114.814 42.2145V50H111.383V48.4041H111.294C111.09 48.7919 110.829 49.12 110.511 49.3885C110.198 49.657 109.827 49.8583 109.4 49.9925C108.977 50.1268 108.5 50.1939 107.968 50.1939ZM109.094 47.8075C109.487 47.8075 109.84 47.728 110.153 47.5689C110.471 47.4098 110.725 47.1911 110.914 46.9126C111.103 46.6293 111.197 46.3011 111.197 45.9283V44.8395C111.093 44.8942 110.966 44.9439 110.817 44.9886C110.672 45.0334 110.513 45.0756 110.339 45.1154C110.165 45.1552 109.986 45.19 109.802 45.2198C109.619 45.2496 109.442 45.277 109.273 45.3018C108.93 45.3565 108.637 45.4411 108.393 45.5554C108.154 45.6697 107.97 45.8189 107.841 46.0028C107.717 46.1818 107.655 46.3956 107.655 46.6442C107.655 47.022 107.789 47.3104 108.057 47.5092C108.331 47.7081 108.676 47.8075 109.094 47.8075ZM120.69 43.4673V50H117.044V38.5455H120.511V40.6484H120.638C120.892 39.9474 121.324 39.3981 121.936 39.0004C122.547 38.5977 123.275 38.3963 124.121 38.3963C124.926 38.3963 125.625 38.5778 126.216 38.9407C126.813 39.2986 127.275 39.8008 127.603 40.4471C127.936 41.0884 128.1 41.8391 128.095 42.6992V50H124.449V43.4151C124.454 42.7788 124.292 42.2816 123.964 41.9237C123.641 41.5657 123.191 41.3867 122.614 41.3867C122.231 41.3867 121.893 41.4712 121.6 41.6403C121.312 41.8043 121.088 42.0405 120.929 42.3487C120.775 42.657 120.695 43.0298 120.69 43.4673ZM133.582 50.1939C132.851 50.1939 132.203 50.0721 131.636 49.8285C131.074 49.5799 130.629 49.207 130.301 48.7099C129.978 48.2077 129.816 47.5788 129.816 46.8232C129.816 46.1868 129.928 45.6499 130.152 45.2124C130.376 44.7749 130.684 44.4194 131.077 44.146C131.469 43.8725 131.922 43.6662 132.434 43.527C132.946 43.3828 133.493 43.2859 134.074 43.2362C134.726 43.1765 135.25 43.1143 135.648 43.0497C136.046 42.9801 136.334 42.8832 136.513 42.7589C136.697 42.6296 136.789 42.4482 136.789 42.2145V42.1772C136.789 41.7944 136.657 41.4986 136.394 41.2898C136.13 41.081 135.775 40.9766 135.327 40.9766C134.845 40.9766 134.457 41.081 134.164 41.2898C133.871 41.4986 133.684 41.7869 133.605 42.1548L130.241 42.0355C130.341 41.3395 130.597 40.718 131.009 40.1712C131.427 39.6193 131.999 39.1868 132.725 38.8736C133.455 38.5554 134.333 38.3963 135.357 38.3963C136.088 38.3963 136.762 38.4833 137.378 38.6573C137.994 38.8263 138.531 39.0749 138.989 39.4031C139.446 39.7262 139.799 40.1239 140.048 40.5962C140.301 41.0685 140.428 41.608 140.428 42.2145V50H136.998V48.4041H136.908C136.704 48.7919 136.443 49.12 136.125 49.3885C135.812 49.657 135.442 49.8583 135.014 49.9925C134.591 50.1268 134.114 50.1939 133.582 50.1939ZM134.708 47.8075C135.101 47.8075 135.454 47.728 135.767 47.5689C136.085 47.4098 136.339 47.1911 136.528 46.9126C136.717 46.6293 136.811 46.3011 136.811 45.9283V44.8395C136.707 44.8942 136.58 44.9439 136.431 44.9886C136.287 45.0334 136.128 45.0756 135.954 45.1154C135.78 45.1552 135.601 45.19 135.417 45.2198C135.233 45.2496 135.056 45.277 134.887 45.3018C134.544 45.3565 134.251 45.4411 134.007 45.5554C133.769 45.6697 133.585 45.8189 133.455 46.0028C133.331 46.1818 133.269 46.3956 133.269 46.6442C133.269 47.022 133.403 47.3104 133.672 47.5092C133.945 47.7081 134.291 47.8075 134.708 47.8075Z" fill="#535878"/>
<defs>
<clipPath id="clip0_513_2342">
<rect width="59" height="59" fill="white"/>
</clipPath>
</defs>
</svg>
