<svg width="131" height="48" viewBox="0 0 131 48" fill="none" xmlns="http://www.w3.org/2000/svg">
<g clip-path="url(#clip0_797_2104)">
<path d="M32.4843 18.0943C32.4843 20.4315 31.5559 22.673 29.9033 24.3256C28.2506 25.9783 26.0092 26.9067 23.672 26.9067C21.3348 26.9067 19.0933 25.9783 17.4407 24.3256C15.7881 22.673 14.8596 20.4315 14.8596 18.0943C14.8596 15.7572 15.7881 13.5157 17.4407 11.8631C19.0933 10.2104 21.3348 9.28198 23.672 9.28198C26.0092 9.28198 28.2506 10.2104 29.9033 11.8631C31.5559 13.5157 32.4843 15.7572 32.4843 18.0943Z" fill="#F5D7DB"/>
<path fill-rule="evenodd" clip-rule="evenodd" d="M0.172363 23.9694C0.172363 17.7369 2.64821 11.7596 7.05524 7.35261C11.4623 2.94557 17.4395 0.469727 23.672 0.469727C29.9045 0.469727 35.8817 2.94557 40.2887 7.35261C44.6958 11.7596 47.1716 17.7369 47.1716 23.9694C47.1716 30.2018 44.6958 36.1791 40.2887 40.5861C35.8817 44.9931 29.9045 47.469 23.672 47.469C17.4395 47.469 11.4623 44.9931 7.05524 40.5861C2.64821 36.1791 0.172363 30.2018 0.172363 23.9694ZM23.672 3.40718C19.7998 3.40739 16.0063 4.50098 12.7282 6.56209C9.45013 8.62319 6.82065 11.568 5.14243 15.0577C3.46421 18.5473 2.80546 22.4399 3.242 26.2875C3.67854 30.135 5.19263 33.7811 7.60999 36.806C9.69559 33.4456 14.2868 29.8443 23.672 29.8443C33.0571 29.8443 37.6455 33.4426 39.734 36.806C42.1514 33.7811 43.6654 30.135 44.102 26.2875C44.5385 22.4399 43.8798 18.5473 42.2015 15.0577C40.5233 11.568 37.8938 8.62319 34.6158 6.56209C31.3377 4.50098 27.5442 3.40739 23.672 3.40718Z" fill="#F5D7DB"/>
</g>
<path d="M61.5523 23.0684V8.5229H65.0679V14.361H70.7994V8.5229H74.308V23.0684H70.7994V17.2232H65.0679V23.0684H61.5523ZM81.6126 23.2743C80.4715 23.2743 79.4867 23.0494 78.6581 22.5996C77.8342 22.1451 77.1998 21.4988 76.7547 20.6607C76.3143 19.8179 76.0942 18.8165 76.0942 17.6564C76.0942 16.5295 76.3167 15.5447 76.7618 14.7019C77.2069 13.8543 77.8342 13.1962 78.6439 12.7274C79.4535 12.254 80.4076 12.0172 81.5061 12.0172C82.2826 12.0172 82.9928 12.138 83.6368 12.3794C84.2807 12.6209 84.8371 12.9784 85.3058 13.4519C85.7746 13.9254 86.1392 14.5101 86.3996 15.2061C86.66 15.8974 86.7902 16.6905 86.7902 17.5854V18.4519H77.3087V16.4348H83.5587C83.5539 16.0655 83.4663 15.7364 83.2959 15.4476C83.1254 15.1588 82.891 14.9339 82.5928 14.7729C82.2992 14.6072 81.9606 14.5243 81.5771 14.5243C81.1889 14.5243 80.8409 14.6119 80.5331 14.7871C80.2253 14.9576 79.9815 15.1919 79.8016 15.4902C79.6216 15.7838 79.5269 16.1176 79.5175 16.4917V18.5442C79.5175 18.9893 79.6051 19.3799 79.7803 19.7161C79.9554 20.0475 80.204 20.3056 80.526 20.4902C80.848 20.6749 81.2315 20.7672 81.6766 20.7672C81.9843 20.7672 82.2637 20.7246 82.5146 20.6394C82.7656 20.5542 82.981 20.4287 83.1609 20.263C83.3409 20.0972 83.4758 19.8936 83.5658 19.6522L86.7547 19.7445C86.6221 20.4595 86.3309 21.0821 85.8811 21.6124C85.436 22.138 84.8513 22.5475 84.1268 22.8411C83.4024 23.1299 82.5643 23.2743 81.6126 23.2743ZM92.037 8.5229V23.0684H88.564V8.5229H92.037ZM97.7206 8.5229V23.0684H94.2476V8.5229H97.7206ZM105.024 23.2743C103.878 23.2743 102.893 23.04 102.069 22.5712C101.25 22.0977 100.618 21.4396 100.173 20.5968C99.7323 19.7492 99.5121 18.7667 99.5121 17.6493C99.5121 16.5272 99.7323 15.5447 100.173 14.7019C100.618 13.8543 101.25 13.1962 102.069 12.7274C102.893 12.254 103.878 12.0172 105.024 12.0172C106.169 12.0172 107.152 12.254 107.971 12.7274C108.795 13.1962 109.427 13.8543 109.867 14.7019C110.312 15.5447 110.535 16.5272 110.535 17.6493C110.535 18.7667 110.312 19.7492 109.867 20.5968C109.427 21.4396 108.795 22.0977 107.971 22.5712C107.152 23.04 106.169 23.2743 105.024 23.2743ZM105.045 20.6536C105.461 20.6536 105.814 20.5257 106.103 20.2701C106.392 20.0144 106.612 19.6593 106.764 19.2047C106.92 18.7502 106.998 18.2246 106.998 17.628C106.998 17.022 106.92 16.4917 106.764 16.0371C106.612 15.5826 106.392 15.2275 106.103 14.9718C105.814 14.7161 105.461 14.5882 105.045 14.5882C104.614 14.5882 104.249 14.7161 103.951 14.9718C103.658 15.2275 103.433 15.5826 103.276 16.0371C103.125 16.4917 103.049 17.022 103.049 17.628C103.049 18.2246 103.125 18.7502 103.276 19.2047C103.433 19.6593 103.658 20.0144 103.951 20.2701C104.249 20.5257 104.614 20.6536 105.045 20.6536ZM67.7526 36.1593V38.7161H60.7355V36.1593H67.7526ZM62.1986 47.0684V35.6053C62.1986 34.7625 62.3572 34.0641 62.6744 33.5101C62.9917 32.9514 63.432 32.5347 63.9955 32.2601C64.5589 31.9808 65.2099 31.8411 65.9486 31.8411C66.4315 31.8411 66.8861 31.879 67.3122 31.9547C67.7431 32.0257 68.0627 32.0897 68.271 32.1465L67.717 34.6891C67.5892 34.6465 67.433 34.611 67.2483 34.5826C67.0684 34.5542 66.8979 34.5399 66.7369 34.5399C66.3297 34.5399 66.0504 34.6299 65.8989 34.8098C65.7473 34.9898 65.6716 35.236 65.6716 35.5485V47.0684H62.1986ZM76.4617 42.3596V36.1593H79.9276V47.0684H76.618V45.0371H76.5043C76.2629 45.7047 75.8509 46.235 75.2685 46.628C74.6909 47.0163 73.9925 47.2104 73.1734 47.2104C72.43 47.2104 71.7766 47.04 71.2131 46.699C70.6497 46.3581 70.2117 45.8823 69.8992 45.2715C69.5867 44.656 69.4281 43.9363 69.4234 43.1124V36.1593H72.8964V42.4306C72.9011 43.0224 73.0574 43.4888 73.3651 43.8297C73.6729 44.1706 74.0919 44.3411 74.6222 44.3411C74.9679 44.3411 75.278 44.2653 75.5526 44.1138C75.832 43.9576 76.0522 43.7327 76.2131 43.4391C76.3789 43.1408 76.4617 42.781 76.4617 42.3596ZM85.6112 32.5229V47.0684H82.1382V32.5229H85.6112ZM90.8971 47.253C90.2011 47.253 89.5832 47.137 89.0434 46.905C88.5084 46.6683 88.0846 46.3132 87.7721 45.8397C87.4643 45.3614 87.3104 44.7625 87.3104 44.0428C87.3104 43.4367 87.417 42.9254 87.63 42.5087C87.8431 42.092 88.1367 41.7535 88.5107 41.4931C88.8848 41.2327 89.3156 41.0362 89.8033 40.9036C90.291 40.7663 90.8119 40.6739 91.3658 40.6266C91.9861 40.5698 92.4856 40.5106 92.8644 40.449C93.2432 40.3828 93.5178 40.2904 93.6883 40.1721C93.8635 40.0489 93.9511 39.8761 93.9511 39.6536V39.6181C93.9511 39.2535 93.8256 38.9718 93.5746 38.7729C93.3237 38.574 92.9852 38.4746 92.559 38.4746C92.0997 38.4746 91.7304 38.574 91.4511 38.7729C91.1717 38.9718 90.9941 39.2464 90.9184 39.5968L87.7153 39.4831C87.81 38.8203 88.0538 38.2284 88.4468 37.7076C88.8445 37.182 89.389 36.7701 90.0803 36.4718C90.7763 36.1687 91.612 36.0172 92.5874 36.0172C93.2834 36.0172 93.925 36.1001 94.5121 36.2658C95.0993 36.4268 95.6106 36.6635 96.0462 36.976C96.4818 37.2838 96.818 37.6626 97.0548 38.1124C97.2962 38.5622 97.417 39.0759 97.417 39.6536V47.0684H94.1499V45.5485H94.0647C93.8706 45.9178 93.622 46.2303 93.319 46.486C93.0207 46.7417 92.6679 46.9334 92.2607 47.0613C91.8583 47.1891 91.4037 47.253 90.8971 47.253ZM91.9695 44.9803C92.3436 44.9803 92.6798 44.9045 92.978 44.753C93.2811 44.6015 93.5226 44.3932 93.7025 44.128C93.8824 43.8581 93.9724 43.5456 93.9724 43.1905V42.1536C93.8729 42.2057 93.7522 42.253 93.6102 42.2956C93.4728 42.3382 93.3213 42.3785 93.1556 42.4164C92.9899 42.4542 92.8194 42.4874 92.6442 42.5158C92.4691 42.5442 92.301 42.5703 92.14 42.5939C91.8133 42.646 91.5339 42.7265 91.3019 42.8354C91.0746 42.9443 90.8995 43.0864 90.7763 43.2615C90.658 43.432 90.5988 43.6356 90.5988 43.8723C90.5988 44.2322 90.7266 44.5068 90.9823 44.6962C91.2427 44.8856 91.5718 44.9803 91.9695 44.9803ZM103.014 40.8468V47.0684H99.5405V36.1593H102.843V38.1621H102.964C103.205 37.4945 103.617 36.9713 104.2 36.5925C104.782 36.209 105.476 36.0172 106.281 36.0172C107.048 36.0172 107.713 36.19 108.276 36.5357C108.845 36.8766 109.285 37.3548 109.597 37.9703C109.915 38.5811 110.071 39.2961 110.066 40.1152V47.0684H106.593V40.7971C106.598 40.191 106.444 39.7175 106.131 39.3766C105.824 39.0357 105.395 38.8652 104.846 38.8652C104.481 38.8652 104.159 38.9457 103.88 39.1067C103.605 39.263 103.392 39.4879 103.241 39.7814C103.094 40.075 103.018 40.4301 103.014 40.8468ZM115.292 47.253C114.596 47.253 113.978 47.137 113.438 46.905C112.903 46.6683 112.479 46.3132 112.167 45.8397C111.859 45.3614 111.705 44.7625 111.705 44.0428C111.705 43.4367 111.812 42.9254 112.025 42.5087C112.238 42.092 112.531 41.7535 112.905 41.4931C113.279 41.2327 113.71 41.0362 114.198 40.9036C114.686 40.7663 115.206 40.6739 115.76 40.6266C116.381 40.5698 116.88 40.5106 117.259 40.449C117.638 40.3828 117.912 40.2904 118.083 40.1721C118.258 40.0489 118.346 39.8761 118.346 39.6536V39.6181C118.346 39.2535 118.22 38.9718 117.969 38.7729C117.718 38.574 117.38 38.4746 116.954 38.4746C116.494 38.4746 116.125 38.574 115.846 38.7729C115.566 38.9718 115.389 39.2464 115.313 39.5968L112.11 39.4831C112.204 38.8203 112.448 38.2284 112.841 37.7076C113.239 37.182 113.784 36.7701 114.475 36.4718C115.171 36.1687 116.007 36.0172 116.982 36.0172C117.678 36.0172 118.32 36.1001 118.907 36.2658C119.494 36.4268 120.005 36.6635 120.441 36.976C120.876 37.2838 121.213 37.6626 121.449 38.1124C121.691 38.5622 121.812 39.0759 121.812 39.6536V47.0684H118.544V45.5485H118.459C118.265 45.9178 118.017 46.2303 117.713 46.486C117.415 46.7417 117.062 46.9334 116.655 47.0613C116.253 47.1891 115.798 47.253 115.292 47.253ZM116.364 44.9803C116.738 44.9803 117.074 44.9045 117.373 44.753C117.676 44.6015 117.917 44.3932 118.097 44.128C118.277 43.8581 118.367 43.5456 118.367 43.1905V42.1536C118.267 42.2057 118.147 42.253 118.005 42.2956C117.867 42.3382 117.716 42.3785 117.55 42.4164C117.384 42.4542 117.214 42.4874 117.039 42.5158C116.864 42.5442 116.695 42.5703 116.535 42.5939C116.208 42.646 115.928 42.7265 115.696 42.8354C115.469 42.9443 115.294 43.0864 115.171 43.2615C115.053 43.432 114.993 43.6356 114.993 43.8723C114.993 44.2322 115.121 44.5068 115.377 44.6962C115.637 44.8856 115.966 44.9803 116.364 44.9803Z" fill="#F5D7DB"/>
<defs>
<clipPath id="clip0_797_2104">
<rect width="46.9992" height="46.9992" fill="white" transform="translate(0.172363 0.469727)"/>
</clipPath>
</defs>
</svg>
