<svg width="43" height="55" viewBox="0 0 43 55" fill="none" xmlns="http://www.w3.org/2000/svg">
<path fill-rule="evenodd" clip-rule="evenodd" d="M21.5 15.9688C18.652 15.9688 16.3438 18.277 16.3438 21.125C16.3438 23.973 18.652 26.2813 21.5 26.2813C24.348 26.2813 26.6562 23.973 26.6562 21.125C26.6562 18.277 24.348 15.9688 21.5 15.9688ZM21.5 29.7188C16.7545 29.7188 12.9062 25.8722 12.9062 21.125C12.9062 16.3778 16.7545 12.5313 21.5 12.5313C26.2455 12.5313 30.0938 16.3778 30.0938 21.125C30.0938 25.8722 26.2455 29.7188 21.5 29.7188ZM21.5 0.5C10.1098 0.5 0.875 9.73484 0.875 21.125C0.875 29.7497 18.0711 55.5189 21.5 55.5C24.8756 55.5189 42.125 29.6328 42.125 21.125C42.125 9.73484 32.8902 0.5 21.5 0.5Z" fill="#F5D7DB"/>
</svg>
