<svg width="486" height="451" viewBox="0 0 486 451" fill="none" xmlns="http://www.w3.org/2000/svg">
<path d="M137.976 234.323L140.832 91.2227L103.989 224.326H77.4286L42.8712 94.9359C43.0616 118.167 43.49 141.589 44.1564 165.201C44.8228 188.813 45.3464 211.853 45.7272 234.323H0.602539C0.983337 214.71 1.26896 195.239 1.45936 175.912C1.64976 156.584 1.74495 137.114 1.74495 117.501C1.74495 97.8874 1.64976 78.417 1.45936 59.0894C1.26896 39.7618 0.983337 20.2914 0.602539 0.678223H61.7207L91.9942 134.638L125.98 0.678223H183.671C183.1 39.5238 182.815 78.4646 182.815 117.501C182.815 156.537 183.1 195.477 183.671 234.323H137.976ZM199.094 63.5167H235.079L237.078 85.2245C239.363 81.6065 242.124 78.2742 245.361 75.2275C248.598 72.1807 251.977 69.5625 255.499 67.3727C259.022 65.1828 262.544 63.4691 266.067 62.2313C269.589 60.9936 272.873 60.3747 275.92 60.3747C276.301 65.3256 276.634 70.9906 276.919 77.3697C277.205 83.7487 277.348 90.2706 277.348 96.9353C277.348 104.552 277.205 112.074 276.919 119.5C276.634 126.926 276.301 133.781 275.92 140.065C274.206 139.304 271.826 138.732 268.78 138.352C265.733 137.971 263.163 137.78 261.069 137.78C254.024 137.78 248.836 139.446 245.504 142.779C242.172 146.111 240.506 150.253 240.506 155.204V234.323H198.523C198.713 203.475 198.856 174.198 198.951 146.492C199.046 118.786 199.094 91.1275 199.094 63.5167ZM303.052 176.055C307.812 176.055 312.048 177.007 315.761 178.911C319.474 180.815 322.615 183.243 325.186 186.194C327.756 189.146 329.708 192.383 331.04 195.906C332.373 199.429 333.04 202.809 333.04 206.046C333.04 210.235 332.23 214.234 330.612 218.042C328.994 221.851 326.804 225.183 324.043 228.039C321.282 230.895 318.046 233.18 314.333 234.894C310.62 236.608 306.764 237.465 302.766 237.465C297.625 237.465 293.151 236.656 289.343 235.037C285.535 233.418 282.393 231.229 279.918 228.468C277.443 225.706 275.587 222.612 274.349 219.185C273.111 215.757 272.493 212.234 272.493 208.616C272.493 204.808 273.159 200.952 274.492 197.048C275.825 193.145 277.776 189.622 280.347 186.48C282.917 183.338 286.106 180.815 289.914 178.911C293.722 177.007 298.101 176.055 303.052 176.055Z" fill="#535878"/>
<path d="M0.788086 451.002V411.966H11.26V304.855H0.788086V265.819H65.9998V282.004C69.9665 276.927 75.0837 272.404 81.3517 268.437C87.6184 264.47 94.7977 262.486 102.89 262.486C119.074 262.486 131.252 268.516 139.423 280.576C147.594 292.636 151.679 309.774 151.679 331.99C151.679 354.205 147.594 371.343 139.423 383.403C131.252 395.463 119.074 401.493 102.89 401.493C94.7977 401.493 87.6184 399.509 81.3517 395.542C75.0837 391.575 69.9665 387.053 65.9998 381.975V411.966H82.4217V451.002H0.788086ZM79.8038 359.124C84.4051 359.124 87.8564 357.895 90.1576 355.436C92.4577 352.976 93.6077 349.127 93.6077 343.891V320.088C93.6077 314.852 92.4577 311.004 90.1576 308.545C87.8564 306.085 84.4051 304.855 79.8038 304.855C75.2024 304.855 71.7518 306.085 69.4517 308.545C67.1504 311.004 65.9998 314.852 65.9998 320.088V343.891C65.9998 349.127 67.1504 352.976 69.4517 355.436C71.7518 357.895 75.2024 359.124 79.8038 359.124ZM229.267 401.493C206.737 401.493 189.125 395.582 176.431 383.761C163.738 371.938 157.391 354.681 157.391 331.99C157.391 309.298 163.738 292.041 176.431 280.22C189.125 268.398 206.737 262.486 229.267 262.486C251.639 262.486 267.784 268.318 277.701 279.982C287.617 291.645 292.575 306.124 292.575 323.421V340.558H215.463V341.987C215.463 347.858 217.209 352.182 220.699 354.96C224.19 357.736 229.981 359.124 238.073 359.124C247.752 359.124 256.954 358.41 265.681 356.982C274.408 355.554 282.024 353.729 288.529 351.508V389.592C282.976 392.606 274.844 395.344 264.135 397.804C253.424 400.263 241.802 401.493 229.267 401.493ZM215.463 314.376H243.071V311.52C243.071 306.124 241.921 302.237 239.621 299.856C237.32 297.476 233.868 296.286 229.267 296.286C224.666 296.286 221.215 297.516 218.915 299.976C216.614 302.435 215.463 306.283 215.463 311.52V314.376ZM358.501 401.493C341.682 401.493 329.029 397.407 320.541 389.235C312.051 381.063 307.807 367.297 307.807 347.937V304.855H297.335V265.819C303.364 265.819 307.886 264.272 310.901 261.178C313.915 258.083 315.423 253.838 315.423 248.443V237.732H365.879V265.819H398.008V304.855H365.879V343.891C365.879 349.127 367.029 352.976 369.33 355.436C371.63 357.895 375.081 359.124 379.682 359.124C385.712 359.124 392.296 358.41 399.436 356.982V394.352C394.994 396.098 389.004 397.724 381.468 399.232C373.931 400.739 366.275 401.493 358.501 401.493Z" fill="#535878"/>
<path fill-rule="evenodd" clip-rule="evenodd" d="M405.764 65.356C398.698 82.3234 383.127 91.9791 370.983 86.9225C358.839 81.866 354.723 64.0121 361.788 47.0447C368.853 30.0773 384.425 20.4216 396.568 25.4781C408.712 30.5347 412.829 48.3886 405.764 65.356ZM419.581 109.303C431.724 114.359 447.296 104.703 454.361 87.7361C461.426 70.7687 457.309 52.9147 445.166 47.8582C433.022 42.8017 417.45 52.4573 410.385 69.4247C403.32 86.3921 407.437 104.246 419.581 109.303ZM349.14 76.0395C347.973 90.0057 338.132 100.584 327.159 99.6678C316.185 98.7512 308.235 86.6864 309.402 72.7202C310.568 58.754 320.41 48.1753 331.383 49.0919C342.357 50.0085 350.307 62.0734 349.14 76.0395ZM470.129 143.484C460.903 154.033 446.704 156.708 438.415 149.458C430.127 142.208 430.887 127.78 440.114 117.231C449.341 106.682 463.54 104.007 471.829 111.257C480.117 118.507 479.356 132.935 470.129 143.484ZM315.051 127.031C296.935 153.169 320.302 165.234 359.762 173.958C374.769 189.516 408.472 209.814 420.572 186.313C458.053 113.512 370.345 47.2536 315.051 127.031Z" fill="#535878"/>
</svg>
