<svg width="283" height="290" viewBox="0 0 283 290" fill="none" xmlns="http://www.w3.org/2000/svg">
<path fill-rule="evenodd" clip-rule="evenodd" d="M162.222 69.5815C150.414 97.9404 124.388 114.079 104.091 105.627C83.7948 97.1759 76.9139 67.3353 88.7225 38.9764C100.531 10.6176 126.557 -5.52064 146.854 2.93072C167.15 11.3821 174.031 41.2227 162.222 69.5815ZM185.31 143.034C205.607 151.486 231.633 135.347 243.442 106.989C255.25 78.6298 248.369 48.7892 228.073 40.3378C207.776 31.8865 181.75 48.0247 169.942 76.3835C158.133 104.742 165.014 134.583 185.31 143.034ZM67.5776 87.4399C65.6278 110.783 49.1791 128.464 30.8384 126.932C12.4977 125.4 -0.789683 105.235 1.16015 81.892C3.10997 58.5493 19.5587 40.8683 37.8994 42.4003C56.24 43.9323 69.5274 64.0972 67.5776 87.4399ZM269.801 200.163C254.379 217.794 230.647 222.264 216.794 210.147C202.941 198.03 204.213 173.915 219.634 156.283C235.056 138.652 258.787 134.182 272.64 146.299C286.494 158.416 285.222 182.531 269.801 200.163ZM10.6048 172.663C-19.6744 216.35 19.3819 236.515 85.3331 251.095C110.416 277.1 166.746 311.025 186.97 271.745C249.615 150.068 103.023 39.3253 10.6048 172.663Z" fill="#F5D7DB" fill-opacity="0.8"/>
</svg>
